<?xml version="1.0" standalone="no"?>
<!DOCTYPE svg PUBLIC "-//W3C//DTD SVG 20010904//EN"
 "http://www.w3.org/TR/2001/REC-SVG-20010904/DTD/svg10.dtd">
<svg version="1.0" xmlns="http://www.w3.org/2000/svg"
 width="168.000000pt" height="168.000000pt" viewBox="0 0 168.000000 168.000000"
 preserveAspectRatio="xMidYMid meet">
<metadata>
Created by potrace 1.11, written by Peter Selinger 2001-2013
</metadata>
<g transform="translate(0.000000,168.000000) scale(0.100000,-0.100000)"
fill="#000000" stroke="none">
<path d="M844 1388 c-4 -13 -7 -44 -7 -70 1 -34 -5 -52 -18 -64 -16 -15 -19
-32 -19 -118 0 -56 4 -118 9 -138 l9 -38 -48 0 c-26 0 -85 7 -130 16 -72 13
-92 13 -179 1 -191 -29 -334 -126 -404 -276 -29 -61 -31 -74 -33 -186 -1 -79
-5 -120 -13 -123 -8 -3 -11 -61 -11 -198 l0 -194 840 0 840 0 0 179 0 178 -52
5 c-29 3 -129 5 -223 4 -118 -2 -179 2 -201 10 -25 11 -39 10 -79 -2 -27 -7
-54 -14 -61 -14 -35 0 -28 147 10 195 l23 29 36 -17 c44 -21 65 -21 150 -1 62
16 69 16 85 0 10 -9 22 -16 25 -16 16 0 5 47 -24 96 l-31 54 25 -9 c14 -5 27
-8 30 -5 2 3 24 -5 48 -18 51 -27 145 -31 194 -8 l30 14 -60 6 c-33 4 -71 12
-84 19 l-23 13 29 18 c103 62 120 187 36 260 -36 32 -37 32 -107 25 -121 -12
-143 -11 -175 13 -31 22 -61 21 -61 -4 0 -11 -6 -10 -35 2 -19 7 -45 14 -58
14 -20 0 -23 4 -19 28 6 46 -16 56 -83 39 -80 -20 -99 -9 -120 69 l-17 62 27
26 c14 14 24 30 20 35 -3 5 -1 21 5 36 8 22 6 30 -17 51 -33 31 -69 32 -79 2z
m668 -455 c44 -39 0 -104 -57 -83 -15 6 -46 25 -68 42 l-40 32 39 12 c57 17
105 16 126 -3z m-1421 -534 c9 -18 8 -20 -8 -17 -15 3 -18 14 -20 58 -2 53 -1
54 8 17 5 -21 14 -47 20 -58z"/>
</g>
</svg>
